<?xml version="1.0" encoding="utf-8"?>
<!-- Generator: Adobe Illustrator 18.0.0, SVG Export Plug-In . SVG Version: 6.00 Build 0)  -->
<!DOCTYPE svg PUBLIC "-//W3C//DTD SVG 1.1//EN" "http://www.w3.org/Graphics/SVG/1.1/DTD/svg11.dtd">
<svg version="1.1" id="Layer_1" xmlns="http://www.w3.org/2000/svg" xmlns:xlink="http://www.w3.org/1999/xlink" x="0px" y="0px"
	 viewBox="0 0 27.5 40.1" enable-background="new 0 0 27.5 40.1" xml:space="preserve">
<g>
	<g>
		<path fill="#0097A7" d="M27.1,38.6c-0.1-0.4-0.2-0.8-0.4-1.4c-0.2-0.5-0.3-1.1-0.5-1.7c-0.2-0.6-0.4-1.3-0.7-2.1
			c-0.2-0.7-0.5-1.5-0.8-2.3c-0.3-0.8-0.5-1.6-0.8-2.4c-0.3-0.8-0.6-1.7-0.9-2.5c-0.2-0.7-0.5-1.4-0.7-2.1H24v-1.3h-2.1
			c-0.2-0.5-0.4-1-0.5-1.5c-0.6-1.6-1.1-3-1.6-4.3c-0.5-1.2-0.9-2.3-1.2-3c-0.1-0.3-0.2-0.6-0.3-0.8c0.4-0.7,0.6-1.6,0.6-2.5
			c0-2.5-1.7-4.5-4-5V0h-2.2v5.7c-2.3,0.5-4,2.6-4,5c0,1,0.3,1.9,0.8,2.7c0,0,0,0,0,0c-0.1,0.2-0.2,0.5-0.3,0.8
			c-0.3,0.7-0.7,1.8-1.2,3c-0.5,1.2-1,2.7-1.6,4.3c-0.1,0.4-0.3,0.8-0.4,1.2H3.4v1.3h1.9c-0.3,0.8-0.6,1.6-0.9,2.4
			c-0.3,0.8-0.6,1.7-0.9,2.5c-0.3,0.8-0.6,1.7-0.8,2.4c-0.3,0.8-0.5,1.6-0.8,2.3c-0.2,0.7-0.5,1.4-0.7,2.1c-0.2,0.6-0.4,1.2-0.5,1.8
			c-0.2,0.5-0.3,1-0.4,1.4C0.1,39.6,0,40.1,0,40.1s0.2-0.4,0.7-1c0.2-0.3,0.5-0.7,0.7-1.2c0.3-0.5,0.6-1,0.9-1.6
			C2.7,35.7,3,35,3.4,34.4c0.4-0.7,0.8-1.4,1.2-2.1C5,31.5,5.4,30.8,5.9,30c0.4-0.8,0.8-1.6,1.3-2.3c0.7-1.2,1.3-2.4,2-3.6h4v2.4
			h1.2v-2.4h4.2c0.6,1.1,1.2,2.2,1.8,3.3c0.4,0.8,0.9,1.6,1.3,2.3c0.4,0.8,0.9,1.5,1.3,2.2c0.4,0.7,0.8,1.4,1.2,2.1
			c0.4,0.7,0.8,1.3,1.1,1.9c0.3,0.6,0.7,1.1,0.9,1.6c0.3,0.5,0.5,0.9,0.7,1.2c0.4,0.7,0.7,1,0.7,1S27.4,39.3,27.1,38.6z M13.7,7
			c2,0,3.7,1.6,3.7,3.7s-1.6,3.7-3.7,3.7c-2,0-3.7-1.6-3.7-3.7C10,8.7,11.7,7,13.7,7z M14.3,22.7v-1.8h-1.2v1.8H9.8
			c0.7-1.3,1.4-2.6,1.9-3.7c0.6-1.2,1.1-2.2,1.5-2.9c0.1-0.1,0.1-0.2,0.2-0.3c0.1,0,0.2,0,0.3,0c0.2,0,0.4,0,0.6,0c0,0,0,0,0,0
			c0.4,0.7,0.9,1.7,1.5,2.9c0.6,1.2,1.3,2.5,2.1,4L14.3,22.7L14.3,22.7z"/>
		<path fill="#0097A7" d="M13.7,12.6c1.1,0,2-0.9,2-2s-0.9-2-2-2s-2,0.9-2,2S12.6,12.6,13.7,12.6z M13.7,9c0.9,0,1.6,0.7,1.6,1.6
			c0,0.9-0.7,1.6-1.6,1.6c-0.9,0-1.6-0.7-1.6-1.6C12.1,9.7,12.8,9,13.7,9z"/>
	</g>
</g>
</svg>
